# Blender v2.78 (sub 0) OBJ File: ''
# www.blender.org
mtllib selection_pad.mtl
o Circle
v 0.000000 -1.000000 0.000000
v -0.382683 -0.923880 0.000000
v -0.707107 -0.707107 0.000000
v -0.923880 -0.382683 0.000000
v -1.000000 0.000000 -0.000000
v -0.923880 0.382684 -0.000000
v -0.707107 0.707107 -0.000000
v -0.382683 0.923880 -0.000000
v -0.000000 1.000000 -0.000000
v 0.382683 0.923880 -0.000000
v 0.707107 0.707107 -0.000000
v 0.923880 0.382684 -0.000000
v 1.000000 -0.000000 0.000000
v 0.923879 -0.382684 0.000000
v 0.707107 -0.707107 0.000000
v 0.382683 -0.923880 0.000000
v 0.000000 -1.000000 -1.000000
v -0.382683 -0.923880 -1.000000
v -0.707107 -0.707107 -1.000000
v -0.923880 -0.382684 -1.000000
v -1.000000 -0.000000 -1.000000
v -0.923880 0.382683 -1.000000
v -0.707107 0.707107 -1.000000
v -0.382683 0.923879 -1.000000
v -0.000000 1.000000 -1.000000
v 0.382683 0.923879 -1.000000
v 0.707107 0.707107 -1.000000
v 0.923880 0.382683 -1.000000
v 1.000000 -0.000000 -1.000000
v 0.923879 -0.382684 -1.000000
v 0.707107 -0.707107 -1.000000
v 0.382683 -0.923880 -1.000000
v -0.000000 -0.817890 0.000000
v 0.312993 -0.755632 0.000000
v 0.578335 -0.578336 0.000000
v 0.755632 -0.312993 0.000000
v 0.817890 -0.000000 0.000000
v 0.755632 0.312993 -0.000000
v 0.578335 0.578336 -0.000000
v 0.312993 0.755632 -0.000000
v -0.000000 0.817890 -0.000000
v -0.312993 0.755632 -0.000000
v -0.578335 0.578335 -0.000000
v -0.755632 0.312993 -0.000000
v -0.817890 0.000000 -0.000000
v -0.755632 -0.312993 0.000000
v -0.578335 -0.578335 0.000000
v -0.312993 -0.755632 0.000000
v -0.000000 -0.000000 0.000000
v 0.707107 -0.707107 0.000000
v 0.923879 -0.382684 0.000000
v 1.000000 -0.000000 0.000000
v 0.923880 0.382684 -0.000000
v 0.707107 0.707107 -0.000000
v 0.382683 0.923880 -0.000000
v -0.000000 1.000000 -0.000000
v -0.382683 0.923880 -0.000000
v -0.707107 0.707107 -0.000000
v -0.923880 0.382684 -0.000000
v -1.000000 0.000000 -0.000000
v -0.923880 -0.382683 0.000000
v -0.707107 -0.707107 0.000000
v -0.382683 -0.923880 0.000000
v 0.000000 -1.000000 0.000000
v 0.382683 -0.923880 0.000000
v 0.000000 -1.000000 -1.000000
v -0.382683 -0.923880 -1.000000
v -0.707107 -0.707107 -1.000000
v -0.923880 -0.382684 -1.000000
v -1.000000 -0.000000 -1.000000
v -0.923880 0.382683 -1.000000
v -0.707107 0.707107 -1.000000
v -0.382683 0.923879 -1.000000
v -0.000000 1.000000 -1.000000
v 0.382683 0.923879 -1.000000
v 0.707107 0.707107 -1.000000
v 0.923880 0.382683 -1.000000
v 1.000000 -0.000000 -1.000000
v 0.923879 -0.382684 -1.000000
v 0.707107 -0.707107 -1.000000
v 0.382683 -0.923880 -1.000000
vt 5.0711 0.0003
vt 5.0711 1.0000
vt 5.4612 1.0000
vt 5.4612 0.0003
vt 1.5605 0.0002
vt 1.5605 1.0000
vt 1.9506 1.0000
vt 1.9506 0.0003
vt 4.6810 0.0003
vt 4.6810 1.0000
vt 1.1704 0.0002
vt 1.1704 1.0000
vt 4.2910 0.0003
vt 4.2910 1.0000
vt 0.7804 0.0002
vt 0.7804 1.0000
vt 3.9009 0.0003
vt 3.9009 1.0000
vt 0.3903 0.0002
vt 0.3903 1.0000
vt 3.5108 0.0003
vt 3.5108 1.0000
vt 0.0002 0.0002
vt 0.0002 1.0000
vt 2.7307 0.0003
vt 2.7307 1.0000
vt 3.1208 1.0000
vt 3.1208 0.0003
vt 5.8512 0.0003
vt 5.8512 1.0000
vt 6.2413 1.0000
vt 6.2413 0.0003
vt 2.3406 0.0003
vt 2.3406 1.0000
vt 5.0711 0.0003
vt 5.4612 0.0003
vt 5.4612 1.0000
vt 5.0711 1.0000
vt 1.5605 0.0002
vt 1.9506 0.0003
vt 1.9506 1.0000
vt 1.5605 1.0000
vt 4.6810 0.0003
vt 4.6810 1.0000
vt 1.1704 0.0002
vt 1.1704 1.0000
vt 4.2910 0.0003
vt 4.2910 1.0000
vt 0.7804 0.0002
vt 0.7804 1.0000
vt 3.9009 0.0003
vt 3.9009 1.0000
vt 0.3903 0.0002
vt 0.3903 1.0000
vt 3.5108 0.0003
vt 3.5108 1.0000
vt 0.0002 0.0002
vt 0.0002 1.0000
vt 2.7307 0.0003
vt 3.1208 0.0003
vt 3.1208 1.0000
vt 2.7307 1.0000
vt 5.8512 0.0003
vt 6.2413 0.0003
vt 6.2413 1.0000
vt 5.8512 1.0000
vt 2.3406 0.0003
vt 2.3406 1.0000
vt 0.0000 0.0000
vt 0.0000 0.0000
vt 0.0000 0.0000
vt 0.0000 0.0000
vt 0.0000 0.0000
vt 0.0000 0.0000
vt 0.0000 0.0000
vt 0.0000 0.0000
vt 0.0000 0.0000
vt 0.0000 0.0000
vt 0.0000 0.0000
vt 0.0000 0.0000
vt 0.0000 0.0000
vt 0.0000 0.0000
vt 0.0000 0.0000
vt 0.0000 0.0000
vt 0.0000 0.0000
vt 0.0000 0.0000
vt 0.0000 0.0000
vt 0.0000 0.0000
vt 0.0000 0.0000
vt 0.0000 0.0000
vt 0.0000 0.0000
vt 0.0000 0.0000
vt 0.0000 0.0000
vt 0.0000 0.0000
vt 0.0000 0.0000
vt 0.0000 0.0000
vt 0.0000 0.0000
vt 0.0000 0.0000
vt 0.0000 0.0000
vt 0.0000 0.0000
vt 0.0000 0.0000
vn 0.8315 0.5556 -0.0000
vn -0.9808 -0.1951 0.0000
vn 0.9808 0.1951 -0.0000
vn -0.9808 0.1951 -0.0000
vn 0.9808 -0.1951 0.0000
vn -0.8315 0.5556 -0.0000
vn 0.8315 -0.5556 0.0000
vn -0.5556 0.8315 -0.0000
vn 0.5556 -0.8315 0.0000
vn -0.1951 0.9808 -0.0000
vn -0.1951 -0.9808 0.0000
vn 0.1951 -0.9808 0.0000
vn 0.1951 0.9808 -0.0000
vn -0.5556 -0.8315 0.0000
vn 0.5556 0.8315 -0.0000
vn -0.8315 -0.5556 0.0000
vn 0.0000 -0.0000 -1.0000
usemtl Fade_Outer
s 1
f 12/1/1 28/2/1 27/3/1 11/4/1
f 5/5/2 21/6/2 20/7/2 4/8/2
f 13/9/3 29/10/3 28/2/3 12/1/3
f 6/11/4 22/12/4 21/6/4 5/5/4
f 14/13/5 30/14/5 29/10/5 13/9/5
f 7/15/6 23/16/6 22/12/6 6/11/6
f 15/17/7 31/18/7 30/14/7 14/13/7
f 8/19/8 24/20/8 23/16/8 7/15/8
f 16/21/9 32/22/9 31/18/9 15/17/9
f 9/23/10 25/24/10 24/20/10 8/19/10
f 2/25/11 18/26/11 17/27/11 1/28/11
f 1/28/12 17/27/12 32/22/12 16/21/12
f 10/29/13 26/30/13 25/31/13 9/32/13
f 3/33/14 19/34/14 18/26/14 2/25/14
f 11/4/15 27/3/15 26/30/15 10/29/15
f 4/8/16 20/7/16 19/34/16 3/33/16
usemtl Fade_Inner
f 53/35/16 54/36/16 76/37/16 77/38/16
f 60/39/3 61/40/3 69/41/3 70/42/3
f 52/43/2 53/35/2 77/38/2 78/44/2
f 59/45/5 60/39/5 70/42/5 71/46/5
f 51/47/4 52/43/4 78/44/4 79/48/4
f 58/49/7 59/45/7 71/46/7 72/50/7
f 50/51/6 51/47/6 79/48/6 80/52/6
f 57/53/9 58/49/9 72/50/9 73/54/9
f 65/55/8 50/51/8 80/52/8 81/56/8
f 56/57/12 57/53/12 73/54/12 74/58/12
f 63/59/13 64/60/13 66/61/13 67/62/13
f 64/60/10 65/55/10 81/56/10 66/61/10
f 55/63/11 56/64/11 74/65/11 75/66/11
f 62/67/15 63/59/15 67/62/15 68/68/15
f 54/36/14 55/63/14 75/66/14 76/37/14
f 61/40/1 62/67/1 68/68/1 69/41/1
usemtl Circle
f 9/69/17 10/70/17 40/71/17 41/72/17
f 8/73/17 9/69/17 41/72/17 42/74/17
f 2/75/17 3/76/17 47/77/17 48/78/17
f 1/79/17 2/75/17 48/78/17 33/80/17
f 7/81/17 8/73/17 42/74/17 43/82/17
f 14/83/17 15/84/17 35/85/17 36/86/17
f 6/87/17 7/81/17 43/82/17 44/88/17
f 13/89/17 14/83/17 36/86/17 37/90/17
f 5/91/17 6/87/17 44/88/17 45/92/17
f 12/93/17 13/89/17 37/90/17 38/94/17
f 10/70/17 11/95/17 39/96/17 40/71/17
f 3/76/17 4/97/17 46/98/17 47/77/17
f 4/97/17 5/91/17 45/92/17 46/98/17
f 11/95/17 12/93/17 38/94/17 39/96/17
f 16/99/17 1/79/17 33/80/17 34/100/17
f 15/84/17 16/99/17 34/100/17 35/85/17
usemtl Base
f 39/96/17 38/94/17 49/101/17
f 34/100/17 33/80/17 49/101/17
f 47/77/17 46/98/17 49/101/17
f 40/71/17 39/96/17 49/101/17
f 48/78/17 47/77/17 49/101/17
f 41/72/17 40/71/17 49/101/17
f 33/80/17 48/78/17 49/101/17
f 42/74/17 41/72/17 49/101/17
f 35/85/17 34/100/17 49/101/17
f 43/82/17 42/74/17 49/101/17
f 36/86/17 35/85/17 49/101/17
f 44/88/17 43/82/17 49/101/17
f 37/90/17 36/86/17 49/101/17
f 45/92/17 44/88/17 49/101/17
f 38/94/17 37/90/17 49/101/17
f 46/98/17 45/92/17 49/101/17
